<svg xmlns="http://www.w3.org/2000/svg" xmlns:xlink="http://www.w3.org/1999/xlink" fill="none" version="1.1" width="48" height="48" viewBox="0 0 48 48"><g><g><path d="M19.5334,5.52004C22.0305,3.4800370000000003,25.963,3.500037,28.48,5.54004L41.359,16.02C43.168,17.52,44.2888,20.52,43.9348,22.86L41.4574,37.94C40.8872,41.28,37.741,44,34.418,44L13.57554,44C10.2132,44,7.1261600000000005,41.34,6.55594,37.96L4.0784243,22.88C3.68517,20.52,4.805948,17.52,6.65424,16.02L19.5334,5.52004ZM22,34Q22.1965,34,22.3921,33.9807Q22.5876,33.9615,22.7804,33.923100000000005Q22.9731,33.8848,23.1611,33.827799999999996Q23.3492,33.770700000000005,23.5307,33.695499999999996Q23.7123,33.6203,23.8856,33.527699999999996Q24.0589,33.435,24.2223,33.325900000000004Q24.3857,33.2167,24.5376,33.092Q24.6895,32.9674,24.8284,32.8284Q24.9674,32.689499999999995,25.092,32.5376Q25.2167,32.3857,25.3259,32.222300000000004Q25.4351,32.0589,25.5277,31.8856Q25.6203,31.7123,25.6955,31.5307Q25.7707,31.3492,25.8278,31.1611Q25.8848,30.9731,25.9231,30.7804Q25.9615,30.5876,25.9807,30.3921Q26,30.1965,26,30Q26,29.8035,25.9807,29.6079Q25.9615,29.4124,25.9231,29.2196Q25.8848,29.0269,25.8278,28.8389Q25.7707,28.6508,25.6955,28.4693Q25.6203,28.2877,25.5277,28.1144Q25.4351,27.9411,25.3259,27.7777Q25.2167,27.6143,25.092,27.4624Q24.9674,27.3105,24.8284,27.1716Q24.6895,27.0326,24.5376,26.908Q24.3857,26.7833,24.2223,26.6741Q24.0589,26.5649,23.8856,26.4723Q23.7123,26.3797,23.5307,26.3045Q23.3492,26.2293,23.1611,26.1722Q22.9731,26.1152,22.7804,26.0769Q22.5876,26.0385,22.3921,26.0193Q22.1965,26,22,26Q21.8035,26,21.6079,26.0193Q21.4124,26.0385,21.2196,26.0769Q21.0269,26.1152,20.8389,26.1722Q20.6508,26.2293,20.4693,26.3045Q20.2877,26.3797,20.1144,26.4723Q19.9411,26.5649,19.7777,26.6741Q19.6143,26.7833,19.462400000000002,26.908Q19.310499999999998,27.0326,19.171599999999998,27.1716Q19.032600000000002,27.3105,18.908,27.4624Q18.7833,27.6143,18.6741,27.7777Q18.5649,27.9411,18.4723,28.1144Q18.3797,28.2877,18.3045,28.4693Q18.229300000000002,28.6508,18.1722,28.8389Q18.1152,29.0269,18.076900000000002,29.2196Q18.0385,29.4124,18.0193,29.6079Q18,29.8035,18,30Q18,30.1965,18.0193,30.3921Q18.0385,30.5876,18.076900000000002,30.7804Q18.1152,30.9731,18.1722,31.1611Q18.229300000000002,31.3492,18.3045,31.5307Q18.3797,31.7123,18.4723,31.8856Q18.5649,32.0589,18.6741,32.222300000000004Q18.7833,32.3857,18.908,32.5376Q19.032600000000002,32.689499999999995,19.171599999999998,32.8284Q19.310499999999998,32.9674,19.462400000000002,33.092Q19.6143,33.2167,19.7777,33.325900000000004Q19.9411,33.4351,20.1144,33.527699999999996Q20.2877,33.6203,20.4693,33.695499999999996Q20.6508,33.770700000000005,20.8389,33.827799999999996Q21.0269,33.8848,21.2196,33.923100000000005Q21.4124,33.9615,21.6079,33.9807Q21.8035,34,22,34Z" fill-rule="evenodd" fill="#6D5DF4" fill-opacity="1"/></g></g></svg>