<svg xmlns="http://www.w3.org/2000/svg" xmlns:xlink="http://www.w3.org/1999/xlink" fill="none" version="1.1" width="48" height="48" viewBox="0 0 48 48"><defs><clipPath id="master_svg0_11_2351"><rect x="0" y="0" width="48" height="48" rx="0"/></clipPath></defs><g clip-path="url(#master_svg0_11_2351)"><g><path d="M36.44996235351562,30.7594095703125C33.97966235351562,30.7828095703125,31.696862353515623,32.0907095703125,30.426562353515624,34.2094095703125L17.910962353515625,27.1782095703125C18.881262353515623,25.2985095703125,18.942162353515627,23.0813095703125,18.074962353515623,21.1547095703125L30.543762353515625,14.1047095703125C32.746862353515624,17.3672095703125,37.17656235351563,18.2250095703125,40.434362353515624,16.021909570312502C43.69216235351563,13.8188095703125,44.554662353515624,9.3890995703125,42.351562353515625,6.1312895703125C40.148462353515626,2.8687865703125,35.71876235351563,2.0109735703125002,32.460962353515626,4.2140995703125C30.496862353515624,5.5406595703125,29.320362353515623,7.7578495703125,29.324962353515627,10.1297195703125C29.334362353515626,10.7156595703125,29.414062353515625,11.3015995703125,29.568762353515623,11.8687895703125L16.715662353515626,19.1016095703125C14.006252353515626,16.2328095703125,9.492192353515625,16.1063095703125,6.623442353515625,18.8110095703125C3.754691353515625,21.5156095703125,3.628128353515625,26.0344095703125,6.332812353515625,28.9032095703125C9.037502353515624,31.7719095703125,13.556252353515625,31.8985095703125,16.424962353515625,29.1938095703125L16.471862353515625,29.1469095703125L29.498462353515624,36.4969095703125C28.734362353515625,40.3594095703125,31.242162353515624,44.1047095703125,35.09996235351562,44.8735095703125C38.95786235351562,45.6422095703125,42.70786235351562,43.1297095703125,43.476562353515625,39.2719095703125C44.245362353515624,35.4141095703125,41.73286235351563,31.6641095703125,37.87496235351563,30.8953095703125C37.42036235351563,30.8063095703125,36.956262353515626,30.7594095703125,36.487462353515625,30.7594095703125" fill="#6D5DF4" fill-opacity="1"/></g></g></svg>