<svg xmlns="http://www.w3.org/2000/svg" xmlns:xlink="http://www.w3.org/1999/xlink" fill="none" version="1.1" width="48" height="48" viewBox="0 0 48 48">
    <g>
        <g>
            <path d="M13.4111,25.781C12.37888,25.781,11.54326,26.629,11.54326,27.6766C11.54326,27.6766,11.02832,36.8341,11.02832,36.8341C11.02832,38.1691,12.09566,39.2499,13.4111,39.2499C14.7266,39.2499,15.7915,38.1691,15.7915,36.8341C15.7915,36.8341,15.2789,27.6766,15.2789,27.6766C15.2789,26.629,14.4433,25.781,13.4111,25.781ZM34.5894,22.2192C35.621700000000004,22.2192,36.4573,21.3712,36.4573,20.3236C36.4573,20.3236,36.9699,11.16592,36.9699,11.16592C36.9699,9.83086,35.9049,8.75,34.5894,8.75C33.274,8.75,32.2067,9.83086,32.2067,11.16592C32.2067,11.16592,32.721599999999995,20.3236,32.721599999999995,20.3236C32.721599999999995,21.3712,33.5572,22.2192,34.5894,22.2192ZM15.9607,7.34689C15.9607,7.34689,15.4247,6.795784,15.0924,6.555862C14.6102,6.185287,14.0157,6,13.42346,6C12.75872,6,12.14078,6.209042,11.637540000000001,6.60337C11.54626,6.696014,11.157720000000001,7.04521,10.83704,7.3706499999999995C8.82408,9.2734,5.53079,14.24052,4.524306,16.8417C4.365142,17.236,4.0210658,18.2337,4,18.7682C4,19.2765,4.112351,19.765900000000002,4.341736,20.229100000000003C4.662404,20.8087,5.16565,21.2743,5.7601700000000005,21.5285C6.17212,21.6924,7.40564,21.9466,7.42906,21.9466C8.779620000000001,22.2031,10.97514,22.3409,13.40006,22.3409C15.7103,22.3409,17.814500000000002,22.2031,19.1862,21.9941C19.209600000000002,21.9703,20.7403,21.7161,21.267,21.4358C22.2267,20.9251,22.8235,19.9274,22.8235,18.860799999999998C22.8235,18.860799999999998,22.8235,18.7682,22.8235,18.7682C22.8001,18.072200000000002,22.2033,16.6089,22.1822,16.6089C21.1757,14.14788,18.041600000000003,9.29716,15.9607,7.34689ZM43.6583,27.7705C43.3376,27.1909,42.8344,26.7277,42.2399,26.4711C41.8279,26.3072,40.5921,26.053,40.571,26.053C39.2204,25.7965,37.0249,25.6587,34.6,25.6587C32.2898,25.6587,30.1855,25.7965,28.8139,26.0055C28.7905,26.0293,27.2597,26.2858,26.733,26.5638C25.771,27.0745,25.1765,28.0722,25.1765,29.1412C25.1765,29.1412,25.1765,29.2339,25.1765,29.2339C25.1999,29.9299,25.7944,31.3908,25.8179,31.3908C26.8243,33.8519,29.9561,38.7051,32.0393,40.653C32.0393,40.653,32.5753,41.2041,32.9077,41.4417C33.3875,41.8147,33.9821,41.9999,34.578900000000004,41.9999C35.241299999999995,41.9999,35.856899999999996,41.7909,36.3625,41.3966C36.4538,41.3039,36.8423,40.9547,37.163,40.6316C39.1736,38.7265,42.4693,33.7592,43.4734,31.1604C43.6349,30.7661,43.979,29.766,44.0001,29.2339C44.0001,28.7231,43.8877,28.2338,43.6583,27.7705Z" fill-rule="evenodd" fill="#000000" fill-opacity="0.20000000298023224"/>
        </g>
    </g>
</svg>